<mxfile host="Electron" agent="Mozilla/5.0 (X11; Linux x86_64) AppleWebKit/537.36 (KHTML, like Gecko) draw.io/27.0.9 Chrome/134.0.6998.205 Electron/35.7.2 Safari/537.36" version="27.0.9">
  <diagram name="Seite-1" id="UQ0Hd_HXnTHpDY99RkY9">
    <mxGraphModel dx="659" dy="416" grid="1" gridSize="10" guides="1" tooltips="1" connect="1" arrows="1" fold="1" page="1" pageScale="1" pageWidth="827" pageHeight="1169" math="0" shadow="0">
      <root>
        <mxCell id="0" />
        <mxCell id="1" parent="0" />
        <mxCell id="qYqMjz9e0YOAG9iiIWYR-1" value="" style="rounded=0;whiteSpace=wrap;html=1;" vertex="1" parent="1">
          <mxGeometry x="120" y="120" width="560" height="170" as="geometry" />
        </mxCell>
        <mxCell id="qYqMjz9e0YOAG9iiIWYR-2" value="" style="shape=curlyBracket;whiteSpace=wrap;html=1;rounded=1;flipH=1;labelPosition=right;verticalLabelPosition=middle;align=left;verticalAlign=middle;rotation=90;" vertex="1" parent="1">
          <mxGeometry x="390" y="30" width="20" height="560" as="geometry" />
        </mxCell>
        <mxCell id="qYqMjz9e0YOAG9iiIWYR-3" value="1,44 MiB&lt;div&gt;2880 Sectors&lt;/div&gt;" style="text;strokeColor=none;align=center;fillColor=none;html=1;verticalAlign=middle;whiteSpace=wrap;rounded=0;" vertex="1" parent="1">
          <mxGeometry x="355" y="330" width="90" height="30" as="geometry" />
        </mxCell>
        <mxCell id="qYqMjz9e0YOAG9iiIWYR-4" value="Floppy Disk" style="text;strokeColor=none;align=center;fillColor=none;html=1;verticalAlign=middle;whiteSpace=wrap;rounded=0;" vertex="1" parent="1">
          <mxGeometry x="355" y="360" width="90" height="30" as="geometry" />
        </mxCell>
        <mxCell id="qYqMjz9e0YOAG9iiIWYR-5" value="&lt;div&gt;&lt;b&gt;Bootloader Stage 1&lt;/b&gt;&lt;/div&gt;&lt;div&gt;&lt;br&gt;&lt;/div&gt;&lt;font style=&quot;font-size: 10px;&quot;&gt;Master Boot Record (MBR)&lt;/font&gt;" style="rounded=0;whiteSpace=wrap;html=1;fillColor=#647687;fontColor=#ffffff;strokeColor=#314354;" vertex="1" parent="1">
          <mxGeometry x="120" y="120" width="90" height="170" as="geometry" />
        </mxCell>
        <mxCell id="qYqMjz9e0YOAG9iiIWYR-6" value="&lt;b&gt;Bootloader&amp;nbsp;&lt;/b&gt;&lt;div&gt;&lt;b&gt;Stage 2&lt;/b&gt;&lt;/div&gt;&lt;div&gt;&lt;b&gt;&lt;br&gt;&lt;/b&gt;&lt;/div&gt;&lt;div&gt;No Filesystem&lt;/div&gt;&lt;div&gt;&lt;br&gt;&lt;/div&gt;" style="rounded=0;whiteSpace=wrap;html=1;fillColor=#6d8764;fontColor=#ffffff;strokeColor=#3A5431;" vertex="1" parent="1">
          <mxGeometry x="210" y="120" width="170" height="170" as="geometry" />
        </mxCell>
        <mxCell id="qYqMjz9e0YOAG9iiIWYR-7" value="&lt;div&gt;&lt;b&gt;Kernel &amp;amp; Filesystem&lt;/b&gt;&lt;/div&gt;&lt;div&gt;&lt;br&gt;&lt;/div&gt;FAT12 Partition&lt;div&gt;&lt;div&gt;&lt;br&gt;&lt;/div&gt;&lt;/div&gt;" style="rounded=0;whiteSpace=wrap;html=1;fillColor=#a0522d;fontColor=#ffffff;strokeColor=#6D1F00;" vertex="1" parent="1">
          <mxGeometry x="380" y="120" width="300" height="170" as="geometry" />
        </mxCell>
        <mxCell id="qYqMjz9e0YOAG9iiIWYR-8" value="" style="shape=curlyBracket;whiteSpace=wrap;html=1;rounded=1;flipH=1;labelPosition=right;verticalLabelPosition=middle;align=left;verticalAlign=middle;rotation=-90;" vertex="1" parent="1">
          <mxGeometry x="155" y="55" width="20" height="90" as="geometry" />
        </mxCell>
        <mxCell id="qYqMjz9e0YOAG9iiIWYR-10" value="" style="shape=curlyBracket;whiteSpace=wrap;html=1;rounded=1;flipH=1;labelPosition=right;verticalLabelPosition=middle;align=left;verticalAlign=middle;rotation=-90;" vertex="1" parent="1">
          <mxGeometry x="285" y="15" width="20" height="170" as="geometry" />
        </mxCell>
        <mxCell id="qYqMjz9e0YOAG9iiIWYR-12" value="" style="shape=curlyBracket;whiteSpace=wrap;html=1;rounded=1;flipH=1;labelPosition=right;verticalLabelPosition=middle;align=left;verticalAlign=middle;rotation=-90;" vertex="1" parent="1">
          <mxGeometry x="520" y="-50" width="20" height="300" as="geometry" />
        </mxCell>
        <mxCell id="qYqMjz9e0YOAG9iiIWYR-13" value="Sector 0" style="text;strokeColor=none;align=center;fillColor=none;html=1;verticalAlign=middle;whiteSpace=wrap;rounded=0;" vertex="1" parent="1">
          <mxGeometry x="135" y="60" width="60" height="30" as="geometry" />
        </mxCell>
        <mxCell id="qYqMjz9e0YOAG9iiIWYR-14" value="Sector 1-256" style="text;strokeColor=none;align=center;fillColor=none;html=1;verticalAlign=middle;whiteSpace=wrap;rounded=0;" vertex="1" parent="1">
          <mxGeometry x="257.5" y="60" width="75" height="30" as="geometry" />
        </mxCell>
        <mxCell id="qYqMjz9e0YOAG9iiIWYR-15" value="Sector 257-2879" style="text;strokeColor=none;align=center;fillColor=none;html=1;verticalAlign=middle;whiteSpace=wrap;rounded=0;" vertex="1" parent="1">
          <mxGeometry x="475" y="60" width="110" height="30" as="geometry" />
        </mxCell>
        <mxCell id="qYqMjz9e0YOAG9iiIWYR-16" value="512 Byte" style="text;strokeColor=none;align=center;fillColor=none;html=1;verticalAlign=middle;whiteSpace=wrap;rounded=0;fontSize=10;" vertex="1" parent="1">
          <mxGeometry x="135" y="260" width="60" height="30" as="geometry" />
        </mxCell>
        <mxCell id="qYqMjz9e0YOAG9iiIWYR-17" value="128 KiB" style="text;strokeColor=none;align=center;fillColor=none;html=1;verticalAlign=middle;whiteSpace=wrap;rounded=0;fontSize=10;" vertex="1" parent="1">
          <mxGeometry x="265" y="260" width="60" height="30" as="geometry" />
        </mxCell>
        <mxCell id="qYqMjz9e0YOAG9iiIWYR-18" value="1,3 MiB" style="text;strokeColor=none;align=center;fillColor=none;html=1;verticalAlign=middle;whiteSpace=wrap;rounded=0;fontSize=10;" vertex="1" parent="1">
          <mxGeometry x="500" y="260" width="60" height="30" as="geometry" />
        </mxCell>
      </root>
    </mxGraphModel>
  </diagram>
</mxfile>
